<svg version="1" xmlns="http://www.w3.org/2000/svg" width="752" height="752" viewBox="0 0 564.000000 564.000000"><path d="M263.8 2.5c-.2.2-4.6.6-9.8.9-14.8.9-26.6 3.2-45.7 9.2-4.8 1.5-9.2 2.8-9.8 3-4.1.9-20.1 7.5-31.6 13.1-8.4 4-28.2 15.5-30.5 17.7-.7.6-2.4 2-4 3.1-21.6 15.4-60.2 58.3-72.2 80.1-.7 1.3-3.3 5.4-5.7 9.1-2.5 3.7-4.5 7.4-4.5 8 0 .7-.4 1.3-.8 1.3s-1.4 1.6-2.1 3.5c-.7 1.9-1.7 3.5-2.2 3.5-.5 0-.9.4-.9.9s-1.4 3.9-3 7.4c-3 6.6-3.7 9.7-2.1 9.7s11.5-4.4 24.6-10.8c7.2-3.5 13.5-6.5 14-6.7.6-.1 2.4-.8 4-1.4 14.8-6.2 24.1-7.6 48.5-7.5 21.8.1 34.1 1.8 47.8 6.8 5.9 2.1 24.2 11.8 24.2 12.8 0 .4.4.8 1 .8 1.2 0 24.5 16.4 27 19 1.6 1.7 25.8 19.4 33 24.2 33.6 22.2 60.9 28.7 107.5 25.4 26.3-1.9 35.5-4.4 54-14.8 14.2-8 34.2-26.4 40.9-37.5 3.9-6.6 8.1-17.5 9.6-25.2.5-2.5 1.1-5.5 1.4-6.7 2.4-11.2 2.3-32 0-45.3-2.1-11.1-11-30-19.1-40.2-3.4-4.3-19.8-20.5-24.3-24-13.2-10.3-32.7-21.3-46.6-26.4-3.8-1.4-7.8-3-8.9-3.5-1.6-.7-8.6-3.1-10.5-3.5-.3-.1-1.8-.5-3.5-.9-1.6-.4-4-1.1-5.2-1.6-1.2-.5-5-1.2-8.5-1.5-3.5-.3-7.6-.8-9.3-1.1-3.6-.6-76.2-1.4-76.7-.9z"/><path d="M510.5 129.7c-.3 1-.8 5.2-1.1 9.3-1.4 23.7-1.6 25.6-4.5 37.7-8.2 34.9-31.7 67.6-61.9 86-9.4 5.7-26.2 13.3-29.5 13.3-.8 0-1.5.5-1.5 1 0 .6-.3.9-.7.8-.5-.2-3.5.7-6.8 1.9s-13 4.7-21.5 7.7c-17.6 6.1-30.1 11-34.5 13.4-19 10.3-26.3 16.4-50.7 42.2-8.2 8.7-20 26.2-25.2 37.3-1.5 3.2-3 4.4-10 7.8-9.4 4.6-12.6 7.1-14.8 11.5-2.7 5.6-1.6 10.8 5.7 25.9 6.3 13.1 6.8 14.4 7.1 22 1.3 28.6 5.6 37.7 29.7 61.6 5.3 5.3 9.7 10.2 9.7 10.8 0 2.7 15.6 32.9 18.3 35.3 7.2 6.6 12.5 6 31.3-3.2 20.6-10.1 23.3-11.2 26.8-11.5 1.7-.1 4.2-.5 5.6-.9 1.4-.3 3.8-.8 5.3-1 11-1.8 34.1-11.8 51.3-22.2 8-4.8 25.1-17 28.8-20.7 1.2-1 13.1-7.3 26.6-13.9 13.5-6.6 29.5-14.4 35.5-17.4 6.1-3 11.6-5.4 12.3-5.4.6 0 1.2-.3 1.2-.8 0-.4 2.1-1.5 4.6-2.6 5-2 9.9-6.7 11.3-10.7 2.1-6.2.8-10.9-8.9-30.4-8.9-18.1-10.4-22.5-8-23.3.5-.2 1-.8 1-1.4 0-.6 1.8-6.1 4.1-12.2s4.2-11.6 4.3-12.1c.1-.6.4-1.5.8-2 .3-.6 1.6-4.6 2.8-9 1.1-4.4 2.2-8.5 2.4-9 .1-.6.6-2.8 1-5s1.2-5.4 1.6-7c.5-1.7 1.2-5.3 1.5-8 .3-2.8.8-7 1.2-9.5 1.4-10.4.5-62.1-1.1-64.9-.2-.3-.6-2.9-1-5.6-1.6-14.1-8.3-39.1-15.2-56.8-3.5-9.3-4.7-12.1-9.5-22.5-1.6-3.5-2.9-6.7-2.9-7.2 0-.6-.4-1-1-1-.5 0-.9-.3-.8-.8.2-.9-5.8-12.8-8.4-16.5-1.1-1.5-1.7-2.7-1.3-2.7.3 0-.7-1.7-2.2-3.8-4.8-6.3-7.5-7.7-8.8-4.5zm28.9 308.2c-.8 1.9-1.6 3.6-1.7 3.7-.1.1-7.6 3.8-16.7 8.2-15.2 7.4-19.8 9.1-15.8 5.9 3-2.3 23.8-35 23.8-37.4 0-.5.6-1.5 1.3-2.2 1-1 2.1.7 5.8 8.6 4.5 9.5 4.6 9.9 3.3 13.2zm-206.7 99c2.9 1 5 2.1 4.6 2.4-1.4 1.5-7 .6-9.1-1.3-3.8-3.6-3-3.7 4.5-1.1z"/><path d="M87.5 186.6c-14.6 2.9-20.4 5-32 11.9-19.3 11.4-34 25.7-42.8 41.6-4.8 8.9-9.6 24.7-11.4 38.1-1 6.9-.9 41.4.1 49.8 1.6 14.6 8.3 46.1 10.4 49.5.4.5.7 1.2.7 1.5 0 .3.5 1.8 1.2 3.5.6 1.6 2.3 6.1 3.8 10 7.8 20.3 28.5 53.9 44.1 71.5 9.9 11.1 13 14.4 21 22.4 4.9 5 11.9 11.6 15.4 14.6s7.1 6.2 8 7c2.7 2.5 16.3 12.5 20.5 15 2.2 1.3 4.2 2.6 4.5 2.9 2.5 2.8 38.8 20.2 43 20.7.3 0 4.9 1.4 10.2 3.2 5.3 1.7 11.1 3.4 12.9 3.7 1.8.3 3.7.9 4.2 1.2.6.3 2 .7 3.1.8 1.2.2 3.9.8 6.1 1.3 2.2.6 5.4 1.4 7 1.6 1.7.3 4.1.8 5.5 1.1 1.4.3 5 .8 8 1.1 3 .3 7.1.8 9 1 7.7 1.2 66.1 1.4 68.1.3l2.1-1.1-2.1-1.9c-1.1-1-2.3-1.9-2.6-1.9-.3 0-3-1.5-5.9-3.4-2.9-1.8-6.2-3.7-7.4-4-1.2-.4-2.2-1.2-2.2-1.7s-.6-.9-1.3-.9c-.7 0-2.3-.9-3.5-2-1.2-1.1-2.6-2-3.2-2-.5 0-1-.4-1-.8s-1.4-1.6-3.1-2.6c-3.7-2.2-20.8-19-26.8-26.3-12.8-15.7-23.6-36.2-25.6-48.5-.3-1.8-.8-4.4-1-5.8-.3-1.4-.7-3.6-1-5-.7-3.6-1.8-23.3-1.8-31 .1-8.3 1.3-30.3 1.9-33.2.2-1.3.6-4.3.9-6.8.3-2.5.7-5.6 1-7 1.1-5.4 2.4-27.7 2.5-41.5 0-21.9-1.3-30.6-7.4-48.2-13.4-38.9-39.7-72.5-69.9-89.2-7.7-4.3-20-9.1-24.1-9.5-1.8-.2-3.7-.5-4.2-.8-1.1-.5-32.1-.7-34.9-.2z"/></svg>